# xmcd CD database file
#
# Track frame offsets:
#	150
#	33127
#	45807
#	78777
#	92025
#	117657
#	138470
#	161530
#	181250
#	199285
#	212570
#	229580
#	247415
#	267087
#	284210
#	303857
#	321850
#
# Disc length: 4614 seconds
#
# Revision: 1
# Processed by: cddbd v1.5.2PL0 Copyright (c) Steve Scherf et al.
# Submitted via: CDex 1.77
#
DISCID=ec120411
DTITLE=Albert King - I'll play the blues for you/Lovejoy
DYEAR=1900
DGENRE=Blues
TTITLE0=I'll play the blues for you
TTITLE1=Little brother (Make a way)
TTITLE2=Breaking up somebody's home
TTITLE3=High cost of loving
TTITLE4=I'll be doggone
TTITLE5=Answer to the laundromat blues
TTITLE6=Don't burn down the bridge
TTITLE7=Angel of mercy
TTITLE8=Honky tonk woman
TTITLE9=Bay area blues
TTITLE10=Corina corina
TTITLE11=She cought the katy
TTITLE12=For the love of a woman
TTITLE13=Lovejoy, ill.
TTITLE14=Everybody wants to go to heaven
TTITLE15=Going back to iuka
TTITLE16=Like a road leading home
EXTD=
EXTT0=
EXTT1=
EXTT2=
EXTT3=
EXTT4=
EXTT5=
EXTT6=
EXTT7=
EXTT8=
EXTT9=
EXTT10=
EXTT11=
EXTT12=
EXTT13=
EXTT14=
EXTT15=
EXTT16=
PLAYORDER=
